<svg width="27" height="25" viewBox="0 0 27 25" fill="none" xmlns="http://www.w3.org/2000/svg">
<path d="M12.8906 12.7656L7.78125 7.42188C6.28125 5.875 6.375 3.29688 8.01562 1.84375C9.70312 0.390625 11.8594 1.09375 12.9375 2.21875L13.4531 2.73438L13.9688 2.21875C15.0469 1.04688 17.2031 0.390625 18.8906 1.84375C20.5312 3.29688 20.625 5.875 19.125 7.42188L14.0625 12.7656C13.7344 13.0938 13.2188 13.0938 12.8906 12.7656ZM9 2.96875C7.875 3.95312 8.0625 5.54688 8.8125 6.34375L13.4531 11.2188L18.0938 6.34375C18.8906 5.54688 19.0781 3.95312 17.9531 2.96875C16.9688 2.125 15.7031 2.59375 15.0469 3.25L13.4531 4.89062L11.9062 3.25C11.25 2.59375 9.98438 2.125 9 2.96875ZM26.1562 16.6562C26.6719 17.1719 27 17.875 26.9062 18.5781C26.9062 19.3281 26.5781 20.0312 26.0156 20.4531L21.2812 24.25C20.625 24.7656 19.875 25 19.0781 25H0.703125C0.328125 25 0 24.6719 0 24.2969C0 23.875 0.328125 23.5469 0.75 23.5469H19.0781C19.5469 23.5469 19.9688 23.3594 20.3438 23.0781L25.0781 19.3281C25.5469 18.9062 25.5938 18.2031 25.0781 17.7812C24.9375 17.5938 24.7031 17.5469 24.4688 17.5469C24.2344 17.5469 23.9531 17.6406 23.7656 17.7812L20.8594 20.0781C20.5312 20.3594 20.0625 20.5 19.6406 20.5H11.2031C10.7812 20.5 10.4531 20.1719 10.4531 19.75C10.4531 19.375 10.7812 19 11.2031 19H15.3281C15.9375 19 16.4531 18.5312 16.4531 17.875C16.4531 17.2656 15.9375 16.75 15.3281 16.75H8.4375C7.78125 16.75 7.17188 16.9844 6.60938 17.3594L4.45312 19.0469L0.703125 19C0.328125 19 0 18.6719 0 18.25C0 17.875 0.328125 17.5 0.75 17.5H3.98438L5.76562 16.1875C6.60938 15.5781 7.5 15.25 8.48438 15.25H15.2344C16.5469 15.25 17.7656 16.1875 17.9531 17.5C18.0469 18.0625 17.9531 18.5781 17.7188 19H19.6875C19.7812 19 19.9219 19 20.0156 18.9062L22.875 16.6094C23.3438 16.2344 23.9062 16.0469 24.5156 16.0469C25.125 16.0469 25.6875 16.2344 26.1562 16.6562Z" fill="#FDE16A"/>
</svg>
